/* XPM */
static char *ultrastardx_32x32[] = {
/* columns rows colors chars-per-pixel */
"32 32 138 2",
"   c black",
".  c gray4",
"X  c #1A1D1D",
"o  c #1E2223",
"O  c #212323",
"+  c #272826",
"@  c #242829",
"#  c #2B2C2B",
"$  c #2E2E3A",
"%  c #2F302E",
"&  c #2C3435",
"*  c #30312F",
"=  c #323433",
"-  c #373936",
";  c #353B3C",
":  c #383936",
">  c #3A3D3B",
",  c #373D40",
"<  c #3F403D",
"1  c #3D4830",
"2  c #3C4143",
"3  c #44442B",
"4  c #494924",
"5  c #454737",
"6  c #40423F",
"7  c #49443E",
"8  c #4C4B34",
"9  c #4F4F38",
"0  c #52523B",
"q  c #7C491F",
"w  c #6C4D2C",
"e  c #764D2B",
"r  c #7F6030",
"t  c #7E683A",
"y  c #424543",
"u  c #424649",
"i  c #464844",
"p  c #44494A",
"a  c #484A46",
"s  c #4A4D4B",
"d  c #4A4E50",
"f  c #4F514D",
"g  c #4C5152",
"h  c #51524E",
"j  c #5A5A43",
"k  c #5E5E4C",
"l  c #545653",
"z  c #575955",
"x  c #535859",
"c  c #5A5C59",
"v  c #5B5F60",
"b  c #5E615D",
"n  c #5D6262",
"m  c #605F4A",
"M  c #606566",
"N  c #656969",
"B  c #696C6B",
"V  c #6E716D",
"C  c #6D7171",
"Z  c #737361",
"A  c #787763",
"S  c #707473",
"D  c #757979",
"F  c #7D8180",
"G  c #80522A",
"H  c #966D2C",
"J  c #986221",
"K  c #AE5B14",
"L  c #B17D3D",
"P  c #897C62",
"I  c #C46710",
"U  c #CB6F18",
"Y  c #D26205",
"T  c #D86909",
"R  c #D97E21",
"E  c #E47914",
"W  c #808000",
"Q  c #838472",
"!  c #8E8E7F",
"~  c #C48A36",
"^  c #D3832D",
"/  c #F08A1F",
"(  c #F89728",
")  c #F99E2F",
"_  c #FBA434",
"`  c #DC9B43",
"'  c #E0A247",
"]  c #828685",
"[  c #838885",
"{  c #8A8E8D",
"}  c #8C908E",
"|  c #8F9290",
" . c #908F83",
".. c #929283",
"X. c #9A9A8D",
"o. c #929594",
"O. c #969A97",
"+. c #9E9D90",
"@. c #999D9B",
"#. c #9CA19C",
"$. c #9FA2A1",
"%. c #ACA490",
"&. c #A3A7A2",
"*. c #A4A8A3",
"=. c #A7A9A8",
"-. c #A8ACA7",
";. c #A8ACA9",
":. c #AEB0A5",
">. c #AEB2AD",
",. c #B3B3AC",
"<. c #B4B7B3",
"1. c #B5B8B4",
"2. c #BABEB4",
"3. c #B9BCB9",
"4. c #BDC0B5",
"5. c #BEC1BC",
"6. c #BFC0C0",
"7. c #C1BDB1",
"8. c #C0C3BD",
"9. c #C3C6C2",
"0. c #C4C8C2",
"q. c #C9CBC5",
"w. c #CACDC9",
"e. c #CED0CB",
"r. c #D1CEC3",
"t. c #D2D5CE",
"y. c #D3D5D1",
"u. c #D5D8D2",
"i. c #D9DBD6",
"p. c #DCDDD9",
"a. c #DDE0DB",
"s. c #E0E2DD",
"d. c #E4E5E2",
"f. c #E7E8E5",
"g. c #E9EAE7",
"h. c #EBECE9",
"j. c gray100",
"k. c None",
/* pixels */
"k.k.k.k.k.k.k.k.k.k.k.k.k.k.k.3 4 k.k.k.k.k.k.k.k.k.k.k.k.k.k.k.",
"k.k.k.k.k.k.k.k.k.k.k.k.3 j Z  .Q m 4 J k.k.k.k.k.k.k.k.k.k.k.k.",
"k.k.k.k.k.k.k.k.k.k.k.9 Z i.d.p.u.t.*.9 1 k.k.k.k.k.k.k.k.k.k.k.",
"k.k.k.k.k.k.k.k.k.k.3 Z f.f.f.p.u.e.e.4.8 k.k.k.k.k.k.k.k.k.k.k.",
"k.k.k.k.k.& $ k.k.k.0 u.f.f.d.p.a.t.t.w.+.1 k.k.k.$ & k.k.k.k.k.",
"k.k.k.k.k.x B = k.k.Z d.s.s.s.p.a.e.6.5.5.4 k.k.; n x k.k.k.k.k.",
"k.k.k.k.k.C h.F 2 5 } s.p.p.d.p.t.t.t.6.6.0 k.2 F h.B k.k.k.k.k.",
"k.k.k.k.k.n h.h.$.u P u.y.y.p.w.e.6.w.5.e.0 < #.h.h.b k.k.k.k.k.",
"k.k.k.k.k.d g.f.h.5.k i.y.y.w.q.u.e.8.8.4.5 5.h.f.f.d k.k.k.k.k.",
"k.k.u p = p 3.d.d.g. .>.w.9.0.9.q.8.8.8.Z 5.h.d.d.3.p = p u k.k.",
"k.k.d e.@.d g s.s.s.d.Z q.w.e.0.8.8.t.+.X.f.s.d.a.g d #.e.d k.k.",
"k.k., 3.h.h.o.F s.a.p.] t %.q.w.8.8.P w e.p.a.a.F o.h.h.3., k.k.",
"k.k.& n h.h.g.| | p.a.} ' ~ H H H J I e e.p.a.| o.f.h.h.n & k.k.",
"k.k.k.p $.h.d.a.[ | a.O.` _ ) ( / / T e y.p.} [ p.f.h.@.p k.k.k.",
"k.k.& $ p F g.s.i.} C #.~ _ ) ( / E Y w e.C | i.d.d.F d & & k.k.",
"k.k.d 9.>.C x 1.p.u.,.g Q ~ ^ R U K q 7 n >.u.p.<.x C >.9.d k.k.",
"k.k.2 =.h.h.a.{ B %.e.#.V l l l a < = - 6.t.#.N { a.h.h.-.2 k.k.",
"k.k.k.d 6.g.d.a.e.o.M n V c l l a < * 2 V N #.w.a.s.h.6.d k.k.k.",
"k.k.k.o 2 D w.s.a.y.t.:.B c l l i < * 2 0.u.y.i.a.w.S d o k.k.k.",
"k.k.k.k.2 C B n D $.1.:.N b l h i - % f 0.1.#.D n V C 2 k.k.k.k.",
"k.k.k.k.& S s.d.w.#.F C b b l h y : % ; C [ @.w.d.d.D & k.k.k.k.",
"k.k.k.k.k.& d n { <.>.#.b b l h y - % 2 *.>.<.| c g & k.k.k.k.k.",
"k.k.k.k.k.k.k.2 2 S | #.c b z s 6 : # i #.| C p , k.k.k.k.k.k.k.",
"k.k.k.k.k.k.k.< n <.-.*.l b l s 6 = # 2 :.;.3.n & k.k.k.k.k.k.k.",
"k.k.k.k.k.k.k.k.l $ & ; s b l a < * @ % ; & $ l k.k.k.k.k.k.k.k.",
"k.k.k.k.k.k.k.k.k.k.k.k.p b l a > & + & k.k.k.k.k.k.k.k.k.k.k.k.",
"k.k.k.k.k.k.k.k.k.k.    2 c s y : % O #     k.k.k.k.k.k.k.k.k.k.",
"k.k.k.k.k.k.k.k.        ; h i > * + O @         k.k.k.k.k.k.k.k.",
"k.k.k.k.k.k.k.k.        & y > = # O O o         k.k.k.k.k.k.k.k.",
"k.k.k.k.k.k.k.k.        . o @ O O o X           k.k.k.k.k.k.k.k.",
"k.k.k.k.k.k.k.k.k.k.                        k.k.k.k.k.k.k.k.k.k.",
"k.k.k.k.k.k.k.k.k.k.k.k.k.k.k.k.k.k.k.k.k.k.k.k.k.k.k.k.k.k.k.k."
};
